<svg width="536" height="282" viewBox="0 0 536 282" fill="none" xmlns="http://www.w3.org/2000/svg">
<rect x="0.25" y="1.25" width="534.5" height="280.5" rx="26.75" fill="white" stroke="black" stroke-width="0.5"/>
<path d="M39.75 51.5H42.625V69H39.75V51.5ZM52.5221 56.175C53.9554 56.175 55.1137 56.6333 55.9971 57.55C56.8804 58.4667 57.3221 59.725 57.3221 61.325V69H54.6221V61.6C54.6221 60.6667 54.3721 59.95 53.8721 59.45C53.3721 58.95 52.6887 58.7 51.8221 58.7C50.8721 58.7 50.1054 59 49.5221 59.6C48.9387 60.1833 48.6471 61.0833 48.6471 62.3V69H45.9471V56.5H48.6471V58.1C49.4637 56.8167 50.7554 56.175 52.5221 56.175ZM68.509 56.5H71.459L66.584 69H63.459L58.584 56.5H61.534L65.034 66L68.509 56.5ZM75.7188 54.125C75.3854 54.4583 74.9854 54.625 74.5188 54.625C74.0521 54.625 73.6438 54.4583 73.2938 54.125C72.9604 53.775 72.7938 53.3667 72.7938 52.9C72.7938 52.4333 72.9604 52.0333 73.2938 51.7C73.6271 51.35 74.0354 51.175 74.5188 51.175C75.0021 51.175 75.4104 51.35 75.7438 51.7C76.0771 52.0333 76.2438 52.4333 76.2438 52.9C76.2438 53.3667 76.0688 53.775 75.7188 54.125ZM73.1688 69V56.5H75.8688V69H73.1688ZM85.9787 59.1H82.8787V65.1C82.8787 65.6167 82.9954 65.9917 83.2287 66.225C83.462 66.4417 83.8037 66.5667 84.2537 66.6C84.7204 66.6167 85.2954 66.6083 85.9787 66.575V69C83.912 69.25 82.4287 69.075 81.5287 68.475C80.6287 67.8583 80.1787 66.7333 80.1787 65.1V59.1H77.8787V56.5H80.1787V53.8L82.8787 53V56.5H85.9787V59.1ZM90.0398 63.9C90.2398 64.85 90.6982 65.5833 91.4148 66.1C92.1315 66.6 93.0065 66.85 94.0398 66.85C95.4732 66.85 96.5482 66.3333 97.2648 65.3L99.4898 66.6C98.2565 68.4167 96.4315 69.325 94.0148 69.325C91.9815 69.325 90.3398 68.7083 89.0898 67.475C87.8398 66.225 87.2148 64.65 87.2148 62.75C87.2148 60.8833 87.8315 59.325 89.0648 58.075C90.2982 56.8083 91.8815 56.175 93.8148 56.175C95.6482 56.175 97.1482 56.8167 98.3148 58.1C99.4982 59.3833 100.09 60.9417 100.09 62.775C100.09 63.0583 100.057 63.4333 99.9898 63.9H90.0398ZM90.0148 61.7H97.3648C97.1815 60.6833 96.7565 59.9167 96.0898 59.4C95.4398 58.8833 94.6732 58.625 93.7898 58.625C92.7898 58.625 91.9565 58.9 91.2898 59.45C90.6232 60 90.1982 60.75 90.0148 61.7ZM117.141 56.5H120.016L115.216 69.4C114.016 72.6333 111.982 74.1667 109.116 74V71.475C109.966 71.525 110.649 71.3417 111.166 70.925C111.682 70.525 112.107 69.8917 112.441 69.025L112.566 68.775L107.266 56.5H110.216L113.941 65.575L117.141 56.5ZM127.116 69.325C125.282 69.325 123.724 68.6917 122.441 67.425C121.157 66.1583 120.516 64.6 120.516 62.75C120.516 60.9 121.157 59.3417 122.441 58.075C123.724 56.8083 125.282 56.175 127.116 56.175C128.966 56.175 130.524 56.8083 131.791 58.075C133.074 59.3417 133.716 60.9 133.716 62.75C133.716 64.6 133.074 66.1583 131.791 67.425C130.524 68.6917 128.966 69.325 127.116 69.325ZM124.341 65.575C125.091 66.325 126.016 66.7 127.116 66.7C128.216 66.7 129.141 66.325 129.891 65.575C130.641 64.825 131.016 63.8833 131.016 62.75C131.016 61.6167 130.641 60.675 129.891 59.925C129.141 59.175 128.216 58.8 127.116 58.8C126.016 58.8 125.091 59.175 124.341 59.925C123.591 60.675 123.216 61.6167 123.216 62.75C123.216 63.8833 123.591 64.825 124.341 65.575ZM144.582 56.5H147.282V69H144.582V67.4C143.765 68.6833 142.474 69.325 140.707 69.325C139.274 69.325 138.115 68.8667 137.232 67.95C136.349 67.0333 135.907 65.775 135.907 64.175V56.5H138.607V63.9C138.607 64.8333 138.857 65.55 139.357 66.05C139.857 66.55 140.54 66.8 141.407 66.8C142.357 66.8 143.124 66.5083 143.707 65.925C144.29 65.325 144.582 64.4167 144.582 63.2V56.5ZM153.139 58.6C153.823 57.05 155.106 56.275 156.989 56.275V59.2C155.956 59.1333 155.056 59.3833 154.289 59.95C153.523 60.5 153.139 61.4167 153.139 62.7V69H150.439V56.5H153.139V58.6ZM171.784 53.775C169.818 53.5917 168.834 54.4167 168.834 56.25V56.5H171.784V59.1H168.834V69H166.134V59.1H164.234V56.5H166.134V56.25C166.134 54.5333 166.609 53.2333 167.559 52.35C168.526 51.45 169.934 51.0583 171.784 51.175V53.775ZM176.064 58.6C176.747 57.05 178.031 56.275 179.914 56.275V59.2C178.881 59.1333 177.981 59.3833 177.214 59.95C176.447 60.5 176.064 61.4167 176.064 62.7V69H173.364V56.5H176.064V58.6ZM184.459 54.125C184.126 54.4583 183.726 54.625 183.259 54.625C182.792 54.625 182.384 54.4583 182.034 54.125C181.701 53.775 181.534 53.3667 181.534 52.9C181.534 52.4333 181.701 52.0333 182.034 51.7C182.367 51.35 182.776 51.175 183.259 51.175C183.742 51.175 184.151 51.35 184.484 51.7C184.817 52.0333 184.984 52.4333 184.984 52.9C184.984 53.3667 184.809 53.775 184.459 54.125ZM181.909 69V56.5H184.609V69H181.909ZM189.869 63.9C190.069 64.85 190.527 65.5833 191.244 66.1C191.961 66.6 192.836 66.85 193.869 66.85C195.302 66.85 196.377 66.3333 197.094 65.3L199.319 66.6C198.086 68.4167 196.261 69.325 193.844 69.325C191.811 69.325 190.169 68.7083 188.919 67.475C187.669 66.225 187.044 64.65 187.044 62.75C187.044 60.8833 187.661 59.325 188.894 58.075C190.127 56.8083 191.711 56.175 193.644 56.175C195.477 56.175 196.977 56.8167 198.144 58.1C199.327 59.3833 199.919 60.9417 199.919 62.775C199.919 63.0583 199.886 63.4333 199.819 63.9H189.869ZM189.844 61.7H197.194C197.011 60.6833 196.586 59.9167 195.919 59.4C195.269 58.8833 194.502 58.625 193.619 58.625C192.619 58.625 191.786 58.9 191.119 59.45C190.452 60 190.027 60.75 189.844 61.7ZM208.87 56.175C210.303 56.175 211.461 56.6333 212.345 57.55C213.228 58.4667 213.67 59.725 213.67 61.325V69H210.97V61.6C210.97 60.6667 210.72 59.95 210.22 59.45C209.72 58.95 209.036 58.7 208.17 58.7C207.22 58.7 206.453 59 205.87 59.6C205.286 60.1833 204.995 61.0833 204.995 62.3V69H202.295V56.5H204.995V58.1C205.811 56.8167 207.103 56.175 208.87 56.175ZM226.477 51.5H229.177V69H226.477V67.2C225.46 68.6167 224.002 69.325 222.102 69.325C220.385 69.325 218.919 68.6917 217.702 67.425C216.485 66.1417 215.877 64.5833 215.877 62.75C215.877 60.9 216.485 59.3417 217.702 58.075C218.919 56.8083 220.385 56.175 222.102 56.175C224.002 56.175 225.46 56.875 226.477 58.275V51.5ZM219.702 65.625C220.452 66.375 221.394 66.75 222.527 66.75C223.66 66.75 224.602 66.375 225.352 65.625C226.102 64.8583 226.477 63.9 226.477 62.75C226.477 61.6 226.102 60.65 225.352 59.9C224.602 59.1333 223.66 58.75 222.527 58.75C221.394 58.75 220.452 59.1333 219.702 59.9C218.952 60.65 218.577 61.6 218.577 62.75C218.577 63.9 218.952 64.8583 219.702 65.625ZM234.676 59.95C234.676 60.3667 234.901 60.7 235.351 60.95C235.817 61.1833 236.376 61.3917 237.026 61.575C237.692 61.7417 238.359 61.9417 239.026 62.175C239.692 62.4083 240.251 62.8083 240.701 63.375C241.167 63.925 241.401 64.625 241.401 65.475C241.401 66.675 240.934 67.6167 240.001 68.3C239.084 68.9833 237.926 69.325 236.526 69.325C235.292 69.325 234.234 69.0667 233.351 68.55C232.467 68.0333 231.826 67.3167 231.426 66.4L233.751 65.05C234.184 66.25 235.109 66.85 236.526 66.85C237.942 66.85 238.651 66.3833 238.651 65.45C238.651 65.05 238.417 64.725 237.951 64.475C237.501 64.225 236.942 64.0167 236.276 63.85C235.626 63.6667 234.967 63.4583 234.301 63.225C233.634 62.9917 233.067 62.6083 232.601 62.075C232.151 61.525 231.926 60.8333 231.926 60C231.926 58.85 232.359 57.925 233.226 57.225C234.109 56.525 235.201 56.175 236.501 56.175C237.534 56.175 238.451 56.4083 239.251 56.875C240.067 57.325 240.692 57.9583 241.126 58.775L238.851 60.05C238.417 59.1 237.634 58.625 236.501 58.625C235.984 58.625 235.551 58.7417 235.201 58.975C234.851 59.1917 234.676 59.5167 234.676 59.95Z" fill="black"/>
<path d="M41.696 107.6V121.064H48.34V123H39.65V107.6H41.696ZM60.3245 118.38H51.1065C51.2972 119.348 51.7445 120.111 52.4485 120.668C53.1525 121.211 54.0325 121.482 55.0885 121.482C56.5405 121.482 57.5965 120.947 58.2565 119.876L59.8845 120.8C58.7992 122.457 57.1858 123.286 55.0445 123.286C53.3138 123.286 51.8912 122.743 50.7765 121.658C49.6912 120.543 49.1485 119.157 49.1485 117.5C49.1485 115.828 49.6838 114.449 50.7545 113.364C51.8252 112.264 53.2112 111.714 54.9125 111.714C56.5258 111.714 57.8385 112.286 58.8505 113.43C59.8772 114.545 60.3905 115.909 60.3905 117.522C60.3905 117.801 60.3685 118.087 60.3245 118.38ZM54.9125 113.518C53.9005 113.518 53.0498 113.804 52.3605 114.376C51.6858 114.948 51.2678 115.725 51.1065 116.708H58.4545C58.2932 115.696 57.8898 114.911 57.2445 114.354C56.5992 113.797 55.8218 113.518 54.9125 113.518ZM71.6772 113.892V112H73.5912V123H71.6772V121.108C70.7385 122.56 69.3525 123.286 67.5192 123.286C65.9645 123.286 64.6519 122.729 63.5812 121.614C62.4959 120.485 61.9532 119.113 61.9532 117.5C61.9532 115.901 62.4959 114.537 63.5812 113.408C64.6665 112.279 65.9792 111.714 67.5192 111.714C69.3525 111.714 70.7385 112.44 71.6772 113.892ZM67.7612 121.438C68.8759 121.438 69.8072 121.064 70.5552 120.316C71.3032 119.539 71.6772 118.6 71.6772 117.5C71.6772 116.385 71.3032 115.454 70.5552 114.706C69.8072 113.943 68.8759 113.562 67.7612 113.562C66.6612 113.562 65.7372 113.943 64.9892 114.706C64.2412 115.454 63.8672 116.385 63.8672 117.5C63.8672 118.6 64.2412 119.539 64.9892 120.316C65.7372 121.064 66.6612 121.438 67.7612 121.438ZM78.4051 112V113.848C79.0357 112.484 80.1797 111.802 81.8371 111.802V113.804C80.8984 113.76 80.0917 114.009 79.4171 114.552C78.7424 115.095 78.4051 115.967 78.4051 117.17V123H76.4911V112H78.4051ZM89.1878 111.714C90.4785 111.714 91.5125 112.125 92.2898 112.946C93.0671 113.753 93.4558 114.853 93.4558 116.246V123H91.5418V116.356C91.5418 115.476 91.2998 114.787 90.8158 114.288C90.3318 113.789 89.6645 113.54 88.8138 113.54C87.8311 113.54 87.0538 113.848 86.4818 114.464C85.9098 115.065 85.6238 115.967 85.6238 117.17V123H83.7098V112H85.6238V113.584C86.3865 112.337 87.5745 111.714 89.1878 111.714ZM112.166 120.382L114.586 112H116.588L113.178 123H111.22L108.646 114.86L106.072 123H104.114L100.704 112H102.706L105.126 120.36L107.722 112H109.57L112.166 120.382ZM119.525 109.998C119.159 109.998 118.851 109.873 118.601 109.624C118.352 109.375 118.227 109.074 118.227 108.722C118.227 108.37 118.352 108.069 118.601 107.82C118.851 107.556 119.159 107.424 119.525 107.424C119.877 107.424 120.178 107.556 120.427 107.82C120.677 108.069 120.801 108.37 120.801 108.722C120.801 109.074 120.677 109.375 120.427 109.624C120.178 109.873 119.877 109.998 119.525 109.998ZM120.471 123H118.557V112H120.471V123ZM129.375 112V113.848H126.449V119.81C126.449 120.353 126.552 120.741 126.757 120.976C126.977 121.196 127.307 121.313 127.747 121.328C128.187 121.328 128.73 121.313 129.375 121.284V123C127.689 123.22 126.457 123.081 125.679 122.582C124.917 122.083 124.535 121.159 124.535 119.81V113.848H122.357V112H124.535V109.492L126.449 108.92V112H129.375ZM137.119 111.714C138.41 111.714 139.444 112.125 140.221 112.946C140.999 113.753 141.387 114.853 141.387 116.246V123H139.473V116.356C139.473 115.476 139.231 114.787 138.747 114.288C138.263 113.789 137.596 113.54 136.745 113.54C135.763 113.54 134.985 113.848 134.413 114.464C133.841 115.065 133.555 115.967 133.555 117.17V123H131.641V107.6H133.555V113.584C134.318 112.337 135.506 111.714 137.119 111.714ZM154.069 120.624L157.237 112H159.283L154.795 123.682C154.311 124.929 153.644 125.875 152.793 126.52C151.957 127.18 150.997 127.473 149.911 127.4V125.618C151.261 125.721 152.251 124.973 152.881 123.374L153.079 122.956L148.283 112H150.329L154.069 120.624ZM169.736 121.614C168.621 122.729 167.25 123.286 165.622 123.286C163.994 123.286 162.623 122.729 161.508 121.614C160.393 120.499 159.836 119.128 159.836 117.5C159.836 115.872 160.393 114.501 161.508 113.386C162.623 112.271 163.994 111.714 165.622 111.714C167.25 111.714 168.621 112.271 169.736 113.386C170.865 114.515 171.43 115.887 171.43 117.5C171.43 119.113 170.865 120.485 169.736 121.614ZM165.622 121.416C166.722 121.416 167.646 121.042 168.394 120.294C169.142 119.546 169.516 118.615 169.516 117.5C169.516 116.385 169.142 115.454 168.394 114.706C167.646 113.958 166.722 113.584 165.622 113.584C164.537 113.584 163.62 113.958 162.872 114.706C162.124 115.454 161.75 116.385 161.75 117.5C161.75 118.615 162.124 119.546 162.872 120.294C163.62 121.042 164.537 121.416 165.622 121.416ZM181.276 117.83V112H183.19V123H181.276V121.416C180.514 122.663 179.326 123.286 177.712 123.286C176.422 123.286 175.388 122.883 174.61 122.076C173.833 121.255 173.444 120.147 173.444 118.754V112H175.358V118.644C175.358 119.524 175.6 120.213 176.084 120.712C176.568 121.211 177.236 121.46 178.086 121.46C179.069 121.46 179.846 121.159 180.418 120.558C180.99 119.942 181.276 119.033 181.276 117.83ZM188.018 112V113.848C188.649 112.484 189.793 111.802 191.45 111.802V113.804C190.512 113.76 189.705 114.009 189.03 114.552C188.356 115.095 188.018 115.967 188.018 117.17V123H186.104V112H188.018ZM204.477 107.314V109.162C202.541 109.001 201.573 109.837 201.573 111.67V112H204.477V113.848H201.573V123H199.659V113.848H197.899V112H199.659V111.67C199.659 110.174 200.077 109.052 200.913 108.304C201.749 107.541 202.937 107.211 204.477 107.314ZM207.848 112V113.848C208.479 112.484 209.623 111.802 211.28 111.802V113.804C210.342 113.76 209.535 114.009 208.86 114.552C208.186 115.095 207.848 115.967 207.848 117.17V123H205.934V112H207.848ZM214.121 109.998C213.755 109.998 213.447 109.873 213.197 109.624C212.948 109.375 212.823 109.074 212.823 108.722C212.823 108.37 212.948 108.069 213.197 107.82C213.447 107.556 213.755 107.424 214.121 107.424C214.473 107.424 214.774 107.556 215.023 107.82C215.273 108.069 215.397 108.37 215.397 108.722C215.397 109.074 215.273 109.375 215.023 109.624C214.774 109.873 214.473 109.998 214.121 109.998ZM215.067 123H213.153V112H215.067V123ZM228.547 118.38H219.329C219.52 119.348 219.967 120.111 220.671 120.668C221.375 121.211 222.255 121.482 223.311 121.482C224.763 121.482 225.819 120.947 226.479 119.876L228.107 120.8C227.022 122.457 225.408 123.286 223.267 123.286C221.536 123.286 220.114 122.743 218.999 121.658C217.914 120.543 217.371 119.157 217.371 117.5C217.371 115.828 217.906 114.449 218.977 113.364C220.048 112.264 221.434 111.714 223.135 111.714C224.748 111.714 226.061 112.286 227.073 113.43C228.1 114.545 228.613 115.909 228.613 117.522C228.613 117.801 228.591 118.087 228.547 118.38ZM223.135 113.518C222.123 113.518 221.272 113.804 220.583 114.376C219.908 114.948 219.49 115.725 219.329 116.708H226.677C226.516 115.696 226.112 114.911 225.467 114.354C224.822 113.797 224.044 113.518 223.135 113.518ZM236.291 111.714C237.582 111.714 238.616 112.125 239.393 112.946C240.171 113.753 240.559 114.853 240.559 116.246V123H238.645V116.356C238.645 115.476 238.403 114.787 237.919 114.288C237.435 113.789 236.768 113.54 235.917 113.54C234.935 113.54 234.157 113.848 233.585 114.464C233.013 115.065 232.727 115.967 232.727 117.17V123H230.813V112H232.727V113.584C233.49 112.337 234.678 111.714 236.291 111.714ZM252.339 113.892V107.6H254.253V123H252.339V121.108C251.401 122.56 250.015 123.286 248.181 123.286C246.627 123.286 245.314 122.729 244.243 121.614C243.158 120.485 242.615 119.113 242.615 117.5C242.615 115.901 243.158 114.537 244.243 113.408C245.329 112.279 246.641 111.714 248.181 111.714C250.015 111.714 251.401 112.44 252.339 113.892ZM248.423 121.438C249.538 121.438 250.469 121.064 251.217 120.316C251.965 119.539 252.339 118.6 252.339 117.5C252.339 116.385 251.965 115.454 251.217 114.706C250.469 113.943 249.538 113.562 248.423 113.562C247.323 113.562 246.399 113.943 245.651 114.706C244.903 115.454 244.529 116.385 244.529 117.5C244.529 118.6 244.903 119.539 245.651 120.316C246.399 121.064 247.323 121.438 248.423 121.438ZM258.782 114.97C258.782 115.674 259.508 116.224 260.96 116.62C261.502 116.737 261.957 116.862 262.324 116.994C262.705 117.111 263.116 117.295 263.556 117.544C264.01 117.793 264.355 118.123 264.59 118.534C264.824 118.945 264.942 119.429 264.942 119.986C264.942 120.983 264.553 121.783 263.776 122.384C262.998 122.985 262.016 123.286 260.828 123.286C259.772 123.286 258.855 123.059 258.078 122.604C257.315 122.135 256.772 121.504 256.45 120.712L258.1 119.766C258.276 120.294 258.606 120.712 259.09 121.02C259.574 121.328 260.153 121.482 260.828 121.482C261.488 121.482 262.016 121.357 262.412 121.108C262.808 120.859 263.006 120.485 263.006 119.986C263.006 119.238 262.28 118.695 260.828 118.358C260.344 118.226 259.977 118.123 259.728 118.05C259.478 117.977 259.134 117.845 258.694 117.654C258.268 117.463 257.946 117.265 257.726 117.06C257.506 116.84 257.3 116.554 257.11 116.202C256.934 115.835 256.846 115.432 256.846 114.992C256.846 114.039 257.212 113.254 257.946 112.638C258.694 112.022 259.625 111.714 260.74 111.714C261.634 111.714 262.426 111.919 263.116 112.33C263.82 112.726 264.348 113.283 264.7 114.002L263.094 114.904C262.698 113.965 261.913 113.496 260.74 113.496C260.182 113.496 259.713 113.628 259.332 113.892C258.965 114.156 258.782 114.515 258.782 114.97ZM46.888 173.286C44.5413 173.286 42.6127 172.516 41.102 170.976C39.5913 169.451 38.836 167.559 38.836 165.3C38.836 163.041 39.5913 161.149 41.102 159.624C42.6127 158.084 44.5413 157.314 46.888 157.314C48.2813 157.314 49.572 157.651 50.76 158.326C51.948 159.001 52.872 159.91 53.532 161.054L51.75 162.088C51.31 161.237 50.65 160.563 49.77 160.064C48.9047 159.551 47.944 159.294 46.888 159.294C45.0987 159.294 43.6467 159.866 42.532 161.01C41.4173 162.139 40.86 163.569 40.86 165.3C40.86 167.016 41.4173 168.439 42.532 169.568C43.6467 170.712 45.0987 171.284 46.888 171.284C47.944 171.284 48.9047 171.035 49.77 170.536C50.65 170.023 51.31 169.348 51.75 168.512L53.532 169.524C52.8867 170.668 51.97 171.585 50.782 172.274C49.6087 172.949 48.3107 173.286 46.888 173.286ZM64.7163 163.892V162H66.6303V173H64.7163V171.108C63.7776 172.56 62.3916 173.286 60.5583 173.286C59.0036 173.286 57.6909 172.729 56.6203 171.614C55.5349 170.485 54.9923 169.113 54.9923 167.5C54.9923 165.901 55.5349 164.537 56.6203 163.408C57.7056 162.279 59.0183 161.714 60.5583 161.714C62.3916 161.714 63.7776 162.44 64.7163 163.892ZM60.8003 171.438C61.9149 171.438 62.8463 171.064 63.5943 170.316C64.3423 169.539 64.7163 168.6 64.7163 167.5C64.7163 166.385 64.3423 165.454 63.5943 164.706C62.8463 163.943 61.9149 163.562 60.8003 163.562C59.7003 163.562 58.7763 163.943 58.0283 164.706C57.2803 165.454 56.9062 166.385 56.9062 167.5C56.9062 168.6 57.2803 169.539 58.0283 170.316C58.7763 171.064 59.7003 171.438 60.8003 171.438ZM75.0081 161.714C76.2988 161.714 77.3328 162.125 78.1101 162.946C78.8875 163.753 79.2761 164.853 79.2761 166.246V173H77.3621V166.356C77.3621 165.476 77.1201 164.787 76.6361 164.288C76.1521 163.789 75.4848 163.54 74.6341 163.54C73.6515 163.54 72.8741 163.848 72.3021 164.464C71.7301 165.065 71.4441 165.967 71.4441 167.17V173H69.5301V162H71.4441V163.584C72.2068 162.337 73.3948 161.714 75.0081 161.714ZM83.5981 164.97C83.5981 165.674 84.3241 166.224 85.7761 166.62C86.3188 166.737 86.7734 166.862 87.1401 166.994C87.5214 167.111 87.9321 167.295 88.3721 167.544C88.8268 167.793 89.1714 168.123 89.4061 168.534C89.6408 168.945 89.7581 169.429 89.7581 169.986C89.7581 170.983 89.3694 171.783 88.5921 172.384C87.8148 172.985 86.8321 173.286 85.6441 173.286C84.5881 173.286 83.6714 173.059 82.8941 172.604C82.1314 172.135 81.5888 171.504 81.2661 170.712L82.9161 169.766C83.0921 170.294 83.4221 170.712 83.9061 171.02C84.3901 171.328 84.9694 171.482 85.6441 171.482C86.3041 171.482 86.8321 171.357 87.2281 171.108C87.6241 170.859 87.8221 170.485 87.8221 169.986C87.8221 169.238 87.0961 168.695 85.6441 168.358C85.1601 168.226 84.7934 168.123 84.5441 168.05C84.2948 167.977 83.9501 167.845 83.5101 167.654C83.0848 167.463 82.7621 167.265 82.5421 167.06C82.3221 166.84 82.1168 166.554 81.9261 166.202C81.7501 165.835 81.6621 165.432 81.6621 164.992C81.6621 164.039 82.0288 163.254 82.7621 162.638C83.5101 162.022 84.4414 161.714 85.5561 161.714C86.4508 161.714 87.2428 161.919 87.9321 162.33C88.6361 162.726 89.1641 163.283 89.5161 164.002L87.9101 164.904C87.5141 163.965 86.7294 163.496 85.5561 163.496C84.9988 163.496 84.5294 163.628 84.1481 163.892C83.7814 164.156 83.5981 164.515 83.5981 164.97ZM100.831 163.892V162H102.745V173H100.831V171.108C99.8928 172.56 98.5068 173.286 96.6735 173.286C95.1188 173.286 93.8062 172.729 92.7355 171.614C91.6502 170.485 91.1075 169.113 91.1075 167.5C91.1075 165.901 91.6502 164.537 92.7355 163.408C93.8208 162.279 95.1335 161.714 96.6735 161.714C98.5068 161.714 99.8928 162.44 100.831 163.892ZM96.9155 171.438C98.0302 171.438 98.9615 171.064 99.7095 170.316C100.457 169.539 100.831 168.6 100.831 167.5C100.831 166.385 100.457 165.454 99.7095 164.706C98.9615 163.943 98.0302 163.562 96.9155 163.562C95.8155 163.562 94.8915 163.943 94.1435 164.706C93.3955 165.454 93.0215 166.385 93.0215 167.5C93.0215 168.6 93.3955 169.539 94.1435 170.316C94.8915 171.064 95.8155 171.438 96.9155 171.438ZM111.629 162V163.848H108.703V169.81C108.703 170.353 108.806 170.741 109.011 170.976C109.231 171.196 109.561 171.313 110.001 171.328C110.441 171.328 110.984 171.313 111.629 171.284V173C109.943 173.22 108.711 173.081 107.933 172.582C107.171 172.083 106.789 171.159 106.789 169.81V163.848H104.611V162H106.789V159.492L108.703 158.92V162H111.629ZM123.838 165.08L130.856 173H128.348L121.704 165.608V173H119.658V157.6H121.704V164.552L128.128 157.6H130.636L123.838 165.08ZM133.447 159.998C133.081 159.998 132.773 159.873 132.523 159.624C132.274 159.375 132.149 159.074 132.149 158.722C132.149 158.37 132.274 158.069 132.523 157.82C132.773 157.556 133.081 157.424 133.447 157.424C133.799 157.424 134.1 157.556 134.349 157.82C134.599 158.069 134.723 158.37 134.723 158.722C134.723 159.074 134.599 159.375 134.349 159.624C134.1 159.873 133.799 159.998 133.447 159.998ZM134.393 173H132.479V162H134.393V173ZM143.297 162V163.848H140.371V169.81C140.371 170.353 140.474 170.741 140.679 170.976C140.899 171.196 141.229 171.313 141.669 171.328C142.109 171.328 142.652 171.313 143.297 171.284V173C141.611 173.22 140.379 173.081 139.601 172.582C138.839 172.083 138.457 171.159 138.457 169.81V163.848H136.279V162H138.457V159.492L140.371 158.92V162H143.297Z" fill="#7F7F7F"/>
<path d="M50.012 145.184L52.058 147.362L50.342 148.352L48.78 146.68C47.6507 147.751 46.184 148.286 44.38 148.286C42.8253 148.286 41.5787 147.89 40.64 147.098C39.6867 146.277 39.21 145.191 39.21 143.842C39.21 142.889 39.452 142.023 39.936 141.246C40.42 140.454 41.1167 139.838 42.026 139.398C41.366 138.562 41.036 137.631 41.036 136.604C41.036 135.328 41.476 134.294 42.356 133.502C43.2653 132.71 44.336 132.314 45.568 132.314C46.5947 132.314 47.526 132.6 48.362 133.172C49.198 133.729 49.7993 134.492 50.166 135.46L48.45 136.45C48.23 135.775 47.8633 135.247 47.35 134.866C46.8513 134.485 46.272 134.294 45.612 134.294C44.8933 134.294 44.292 134.514 43.808 134.954C43.324 135.379 43.082 135.922 43.082 136.582C43.082 137.037 43.1847 137.455 43.39 137.836C43.61 138.217 43.962 138.672 44.446 139.2L48.648 143.688C49.0293 142.911 49.2933 141.979 49.44 140.894L51.2 141.906C50.9947 143.123 50.5987 144.216 50.012 145.184ZM44.424 146.35C45.6413 146.35 46.6533 145.991 47.46 145.272L43.302 140.806C42.6273 141.085 42.114 141.488 41.762 142.016C41.4247 142.529 41.256 143.094 41.256 143.71C41.256 144.531 41.5347 145.177 42.092 145.646C42.6493 146.115 43.4267 146.35 44.424 146.35ZM66.8664 140.366H74.5664V141.29C74.5664 143.299 73.8771 144.971 72.4984 146.306C71.1197 147.626 69.2937 148.286 67.0204 148.286C64.6737 148.286 62.7304 147.516 61.1904 145.976C59.6651 144.407 58.9024 142.515 58.9024 140.3C58.9024 138.085 59.6651 136.201 61.1904 134.646C62.7304 133.091 64.6591 132.314 66.9764 132.314C68.3844 132.314 69.6897 132.659 70.8924 133.348C72.1097 134.037 73.0264 134.932 73.6424 136.032L71.8824 137.066C71.4424 136.23 70.7751 135.563 69.8804 135.064C68.9857 134.551 68.0104 134.294 66.9544 134.294C65.1797 134.294 63.7351 134.873 62.6204 136.032C61.4911 137.191 60.9264 138.613 60.9264 140.3C60.9264 141.987 61.4911 143.409 62.6204 144.568C63.7644 145.712 65.2384 146.284 67.0424 146.284C68.5531 146.284 69.7851 145.917 70.7384 145.184C71.7064 144.436 72.3004 143.446 72.5204 142.214H66.8664V140.366ZM87.4163 143.38H78.1983C78.389 144.348 78.8363 145.111 79.5403 145.668C80.2443 146.211 81.1243 146.482 82.1803 146.482C83.6323 146.482 84.6883 145.947 85.3483 144.876L86.9763 145.8C85.891 147.457 84.2776 148.286 82.1363 148.286C80.4056 148.286 78.983 147.743 77.8683 146.658C76.783 145.543 76.2403 144.157 76.2403 142.5C76.2403 140.828 76.7756 139.449 77.8463 138.364C78.917 137.264 80.303 136.714 82.0043 136.714C83.6176 136.714 84.9303 137.286 85.9423 138.43C86.969 139.545 87.4823 140.909 87.4823 142.522C87.4823 142.801 87.4603 143.087 87.4163 143.38ZM82.0043 138.518C80.9923 138.518 80.1416 138.804 79.4523 139.376C78.7776 139.948 78.3596 140.725 78.1983 141.708H85.5463C85.385 140.696 84.9816 139.911 84.3363 139.354C83.691 138.797 82.9136 138.518 82.0043 138.518ZM95.3442 137V138.848H92.4182V144.81C92.4182 145.353 92.5209 145.741 92.7262 145.976C92.9462 146.196 93.2762 146.313 93.7162 146.328C94.1562 146.328 94.6989 146.313 95.3442 146.284V148C93.6575 148.22 92.4255 148.081 91.6482 147.582C90.8855 147.083 90.5042 146.159 90.5042 144.81V138.848H88.3262V137H90.5042V134.492L92.4182 133.92V137H95.3442ZM105.089 137V138.848C105.719 137.484 106.863 136.802 108.521 136.802V138.804C107.582 138.76 106.775 139.009 106.101 139.552C105.426 140.095 105.089 140.967 105.089 142.17V148H103.175V137H105.089ZM120.352 143.38H111.134C111.325 144.348 111.772 145.111 112.476 145.668C113.18 146.211 114.06 146.482 115.116 146.482C116.568 146.482 117.624 145.947 118.284 144.876L119.912 145.8C118.827 147.457 117.213 148.286 115.072 148.286C113.341 148.286 111.919 147.743 110.804 146.658C109.719 145.543 109.176 144.157 109.176 142.5C109.176 140.828 109.711 139.449 110.782 138.364C111.853 137.264 113.239 136.714 114.94 136.714C116.553 136.714 117.866 137.286 118.878 138.43C119.905 139.545 120.418 140.909 120.418 142.522C120.418 142.801 120.396 143.087 120.352 143.38ZM114.94 138.518C113.928 138.518 113.077 138.804 112.388 139.376C111.713 139.948 111.295 140.725 111.134 141.708H118.482C118.321 140.696 117.917 139.911 117.272 139.354C116.627 138.797 115.849 138.518 114.94 138.518ZM132.726 145.382L135.146 137H137.148L133.738 148H131.78L129.206 139.86L126.632 148H124.674L121.264 137H123.266L125.686 145.36L128.282 137H130.13L132.726 145.382ZM147.796 138.892V137H149.71V148H147.796V146.108C146.858 147.56 145.472 148.286 143.638 148.286C142.084 148.286 140.771 147.729 139.7 146.614C138.615 145.485 138.072 144.113 138.072 142.5C138.072 140.901 138.615 139.537 139.7 138.408C140.786 137.279 142.098 136.714 143.638 136.714C145.472 136.714 146.858 137.44 147.796 138.892ZM143.88 146.438C144.995 146.438 145.926 146.064 146.674 145.316C147.422 144.539 147.796 143.6 147.796 142.5C147.796 141.385 147.422 140.454 146.674 139.706C145.926 138.943 144.995 138.562 143.88 138.562C142.78 138.562 141.856 138.943 141.108 139.706C140.36 140.454 139.986 141.385 139.986 142.5C139.986 143.6 140.36 144.539 141.108 145.316C141.856 146.064 142.78 146.438 143.88 146.438ZM154.524 137V138.848C155.155 137.484 156.299 136.802 157.956 136.802V138.804C157.018 138.76 156.211 139.009 155.536 139.552C154.862 140.095 154.524 140.967 154.524 142.17V148H152.61V137H154.524ZM168.335 138.892V132.6H170.249V148H168.335V146.108C167.397 147.56 166.011 148.286 164.177 148.286C162.623 148.286 161.31 147.729 160.239 146.614C159.154 145.485 158.611 144.113 158.611 142.5C158.611 140.901 159.154 139.537 160.239 138.408C161.325 137.279 162.637 136.714 164.177 136.714C166.011 136.714 167.397 137.44 168.335 138.892ZM164.419 146.438C165.534 146.438 166.465 146.064 167.213 145.316C167.961 144.539 168.335 143.6 168.335 142.5C168.335 141.385 167.961 140.454 167.213 139.706C166.465 138.943 165.534 138.562 164.419 138.562C163.319 138.562 162.395 138.943 161.647 139.706C160.899 140.454 160.525 141.385 160.525 142.5C160.525 143.6 160.899 144.539 161.647 145.316C162.395 146.064 163.319 146.438 164.419 146.438ZM183.709 143.38H174.491C174.682 144.348 175.129 145.111 175.833 145.668C176.537 146.211 177.417 146.482 178.473 146.482C179.925 146.482 180.981 145.947 181.641 144.876L183.269 145.8C182.184 147.457 180.571 148.286 178.429 148.286C176.699 148.286 175.276 147.743 174.161 146.658C173.076 145.543 172.533 144.157 172.533 142.5C172.533 140.828 173.069 139.449 174.139 138.364C175.21 137.264 176.596 136.714 178.297 136.714C179.911 136.714 181.223 137.286 182.235 138.43C183.262 139.545 183.775 140.909 183.775 142.522C183.775 142.801 183.753 143.087 183.709 143.38ZM178.297 138.518C177.285 138.518 176.435 138.804 175.745 139.376C175.071 139.948 174.653 140.725 174.491 141.708H181.839C181.678 140.696 181.275 139.911 180.629 139.354C179.984 138.797 179.207 138.518 178.297 138.518ZM195.062 138.892V132.6H196.976V148H195.062V146.108C194.123 147.56 192.737 148.286 190.904 148.286C189.349 148.286 188.037 147.729 186.966 146.614C185.881 145.485 185.338 144.113 185.338 142.5C185.338 140.901 185.881 139.537 186.966 138.408C188.051 137.279 189.364 136.714 190.904 136.714C192.737 136.714 194.123 137.44 195.062 138.892ZM191.146 146.438C192.261 146.438 193.192 146.064 193.94 145.316C194.688 144.539 195.062 143.6 195.062 142.5C195.062 141.385 194.688 140.454 193.94 139.706C193.192 138.943 192.261 138.562 191.146 138.562C190.046 138.562 189.122 138.943 188.374 139.706C187.626 140.454 187.252 141.385 187.252 142.5C187.252 143.6 187.626 144.539 188.374 145.316C189.122 146.064 190.046 146.438 191.146 146.438ZM214.484 138.892V137H216.398V148H214.484V146.108C213.545 147.56 212.159 148.286 210.326 148.286C208.771 148.286 207.458 147.729 206.388 146.614C205.302 145.485 204.76 144.113 204.76 142.5C204.76 140.901 205.302 139.537 206.388 138.408C207.473 137.279 208.786 136.714 210.326 136.714C212.159 136.714 213.545 137.44 214.484 138.892ZM210.568 146.438C211.682 146.438 212.614 146.064 213.362 145.316C214.11 144.539 214.484 143.6 214.484 142.5C214.484 141.385 214.11 140.454 213.362 139.706C212.614 138.943 211.682 138.562 210.568 138.562C209.468 138.562 208.544 138.943 207.796 139.706C207.048 140.454 206.674 141.385 206.674 142.5C206.674 143.6 207.048 144.539 207.796 145.316C208.544 146.064 209.468 146.438 210.568 146.438ZM224.776 136.714C226.066 136.714 227.1 137.125 227.878 137.946C228.655 138.753 229.044 139.853 229.044 141.246V148H227.13V141.356C227.13 140.476 226.888 139.787 226.404 139.288C225.92 138.789 225.252 138.54 224.402 138.54C223.419 138.54 222.642 138.848 222.07 139.464C221.498 140.065 221.212 140.967 221.212 142.17V148H219.298V137H221.212V138.584C221.974 137.337 223.162 136.714 224.776 136.714ZM240.824 138.892V132.6H242.738V148H240.824V146.108C239.885 147.56 238.499 148.286 236.666 148.286C235.111 148.286 233.798 147.729 232.728 146.614C231.642 145.485 231.1 144.113 231.1 142.5C231.1 140.901 231.642 139.537 232.728 138.408C233.813 137.279 235.126 136.714 236.666 136.714C238.499 136.714 239.885 137.44 240.824 138.892ZM236.908 146.438C238.022 146.438 238.954 146.064 239.702 145.316C240.45 144.539 240.824 143.6 240.824 142.5C240.824 141.385 240.45 140.454 239.702 139.706C238.954 138.943 238.022 138.562 236.908 138.562C235.808 138.562 234.884 138.943 234.136 139.706C233.388 140.454 233.014 141.385 233.014 142.5C233.014 143.6 233.388 144.539 234.136 145.316C234.884 146.064 235.808 146.438 236.908 146.438ZM260.246 138.892V137H262.16V148H260.246V146.108C259.307 147.56 257.921 148.286 256.088 148.286C254.533 148.286 253.22 147.729 252.15 146.614C251.064 145.485 250.522 144.113 250.522 142.5C250.522 140.901 251.064 139.537 252.15 138.408C253.235 137.279 254.548 136.714 256.088 136.714C257.921 136.714 259.307 137.44 260.246 138.892ZM256.33 146.438C257.444 146.438 258.376 146.064 259.124 145.316C259.872 144.539 260.246 143.6 260.246 142.5C260.246 141.385 259.872 140.454 259.124 139.706C258.376 138.943 257.444 138.562 256.33 138.562C255.23 138.562 254.306 138.943 253.558 139.706C252.81 140.454 252.436 141.385 252.436 142.5C252.436 143.6 252.81 144.539 253.558 145.316C254.306 146.064 255.23 146.438 256.33 146.438ZM279.623 132.6V134.536H272.803V139.53H279.337V141.466H272.803V148H270.757V132.6H279.623ZM293.497 148H291.231L287.777 142.104H284.147V148H282.101V132.6H288.261C289.581 132.6 290.711 133.069 291.649 134.008C292.588 134.932 293.057 136.054 293.057 137.374C293.057 138.371 292.757 139.281 292.155 140.102C291.539 140.938 290.777 141.517 289.867 141.84L293.497 148ZM288.261 134.514H284.147V140.256H288.261C289.024 140.256 289.669 139.977 290.197 139.42C290.74 138.863 291.011 138.181 291.011 137.374C291.011 136.567 290.74 135.893 290.197 135.35C289.669 134.793 289.024 134.514 288.261 134.514ZM297.596 141.18V146.064H304.746V148H295.55V132.6H304.636V134.536H297.596V139.266H304.086V141.18H297.596ZM309.262 141.18V146.064H316.412V148H307.216V132.6H316.302V134.536H309.262V139.266H315.752V141.18H309.262Z" fill="#717171"/>
<path d="M284.088 256.262C287.379 165.482 381.871 144.107 362.384 34.7641C359.382 17.925 371.262 1 388.366 1H476.539C490.346 1 501.539 12.1929 501.539 26V253.5C501.539 267.307 490.346 278.5 476.539 278.5H307.292C294.606 278.5 283.628 268.94 284.088 256.262Z" fill="#8FFEBC"/>
<path d="M301.088 256.262C304.379 165.482 398.871 144.107 379.384 34.7641C376.382 17.925 388.262 1 405.366 1H493.539C507.346 1 518.539 12.1929 518.539 26V253.5C518.539 267.307 507.346 278.5 493.539 278.5H324.292C311.606 278.5 300.628 268.94 301.088 256.262Z" fill="#3EEB84"/>
<path d="M318.549 255.762C321.84 164.982 416.332 143.607 396.845 34.2641C393.843 17.425 405.723 0.5 422.827 0.5H511C524.807 0.5 536 11.6929 536 25.5V253C536 266.807 524.807 278 511 278H341.753C329.067 278 318.089 268.44 318.549 255.762Z" fill="#020427"/>
</svg>
